# xmcd
#
# Track frame offsets:
#	150
#	16699
#	33272
#	49365
#	78028
#	93902
#	107267
#	128106
#	148290
#	172536
#	189329
#	218666
#	231806
#
# Disc length: 3444 seconds
#
# Revision: 0
# Processed by: cddbd v1.4PL0 Copyright (c) Steve Scherf et al.
# Submitted via: EasyCDDAExtractor 4.6.0.1
#
DISCID=940d720d
DTITLE=Billy Watson and His International Silver String Submarine Band - Littl
DTITLE=e Snick Meets Junior Mint
DYEAR=2000
DGENRE=Blues
TTITLE0=I Believe
TTITLE1=It Ain't Right
TTITLE2=Dark But Not Minor
TTITLE3=You're The One
TTITLE4=Little Snick Meets Junior Mint
TTITLE5=Pretty Darlin'
TTITLE6=Garbage Man
TTITLE7=Keep Your Hand Out Of My Pocket
TTITLE8=My Bad
TTITLE9=Have You Ever Been In Love
TTITLE10=What A Woman
TTITLE11=Gimme The High Sign
TTITLE12=Funky Chicken II
EXTD=
EXTT0=
EXTT1=
EXTT2=
EXTT3=
EXTT4=
EXTT5=
EXTT6=
EXTT7=
EXTT8=
EXTT9=
EXTT10=
EXTT11=
EXTT12=
PLAYORDER=
